<?xml version="1.0" encoding="UTF-8"?>
<svg id="Camada_2" data-name="Camada 2" xmlns="http://www.w3.org/2000/svg" viewBox="0 0 384.16 192.03">
  <defs>
    <style>
      .cls-1 {
        fill: none;
        stroke-width: 1.93px;
      }

      .cls-1, .cls-2 {
        stroke: #fff;
        stroke-miterlimit: 10;
      }

      .cls-2 {
        stroke-width: 1.65px;
      }
    </style>
  </defs>
  <g id="Capa">
    <g>
      <g>
        <g>
          <line class="cls-1" x1="155.18" y1="4.26" x2="155.18" y2="50.1"/>
          <line class="cls-1" x1="155.18" y1="50.1" x2="227.79" y2="50.83"/>
          <polygon class="cls-1" points="227.4 65.5 155.58 64.4 155.58 50.1 227.4 51.2 227.4 65.5"/>
          <line class="cls-1" x1="227.4" y1="65.82" x2="227.4" y2="132.55"/>
          <line class="cls-1" x1="155.58" y1="64.4" x2="155.18" y2="130.4"/>
          <line class="cls-1" x1="162.25" y1="130.26" x2="171.28" y2="76.67"/>
          <line class="cls-1" x1="171.28" y1="76.67" x2="208.95" y2="76.67"/>
          <line class="cls-1" x1="208.95" y1="76.67" x2="218.37" y2="132.23"/>
          <line class="cls-1" x1="154.01" y1="9.95" x2="147.53" y2="9.95"/>
          <line class="cls-1" x1="147.53" y1="9.95" x2="147.53" y2=".96"/>
          <line class="cls-1" x1="147.53" y1=".96" x2="163.03" y2=".96"/>
          <line class="cls-1" x1="163.03" y1=".96" x2="163.03" y2="50.1"/>
        </g>
        <line class="cls-1" x1="155.18" y1="130.4" x2="162.25" y2="130.26"/>
        <line class="cls-1" x1="218.37" y1="132.23" x2="227.4" y2="132.23"/>
      </g>
      <g>
        <path class="cls-2" d="M3.53,140.92v22.65h26.8v2.53H3.53v22.57h26.8v2.53H.82v-52.82h29.5v2.53H3.53Z"/>
        <path class="cls-2" d="M49.34,187.09c-2.93-2.69-4.4-5.94-4.4-9.74v-25.1c0-3.8,1.46-7.07,4.4-9.82,2.87-2.69,6.34-4.04,10.4-4.04s7.52,1.35,10.4,4.04c2.87,2.75,4.31,6.02,4.31,9.82h-2.62c0-3.11-1.18-5.78-3.55-8-2.37-2.22-5.21-3.33-8.54-3.33s-6.17,1.11-8.54,3.33c-2.37,2.22-3.55,4.88-3.55,8v25.1c0,3.12,1.18,5.78,3.55,8,2.37,2.22,5.21,3.33,8.54,3.33s6.17-1.11,8.54-3.33c2.37-2.22,3.55-4.88,3.55-8h2.62c0,3.8-1.44,7.05-4.31,9.74-2.87,2.75-6.34,4.12-10.4,4.12s-7.52-1.37-10.4-4.12Z"/>
        <path class="cls-2" d="M114.27,142.43c2.87,2.75,4.31,6.02,4.31,9.82v25.1c0,3.8-1.44,7.05-4.31,9.74-2.87,2.75-6.34,4.12-10.4,4.12s-7.52-1.37-10.4-4.12c-2.93-2.69-4.4-5.94-4.4-9.74v-25.1c0-3.8,1.46-7.07,4.4-9.82,2.87-2.69,6.34-4.04,10.4-4.04s7.52,1.35,10.4,4.04ZM115.96,152.25c0-3.11-1.18-5.78-3.55-8-2.37-2.22-5.21-3.33-8.54-3.33s-6.17,1.11-8.54,3.33c-2.37,2.22-3.55,4.88-3.55,8v25.1c0,3.12,1.18,5.78,3.55,8,2.37,2.22,5.21,3.33,8.54,3.33s6.17-1.11,8.54-3.33c2.37-2.22,3.55-4.88,3.55-8v-25.1Z"/>
        <path class="cls-2" d="M135.91,191.21h-2.7v-52.82h2.2l12.6,23.6,12.6-23.6h2.11v52.82h-2.62v-46.25l-12.09,22.65-12.09-22.65v46.25Z"/>
        <path class="cls-2" d="M202.52,142.43c2.87,2.75,4.31,6.02,4.31,9.82v25.1c0,3.8-1.44,7.05-4.31,9.74-2.87,2.75-6.34,4.12-10.4,4.12s-7.52-1.37-10.4-4.12c-2.93-2.69-4.4-5.94-4.4-9.74v-25.1c0-3.8,1.46-7.07,4.4-9.82,2.87-2.69,6.34-4.04,10.4-4.04s7.52,1.35,10.4,4.04ZM204.21,152.25c0-3.11-1.18-5.78-3.55-8s-5.21-3.33-8.54-3.33-6.17,1.11-8.54,3.33c-2.37,2.22-3.55,4.88-3.55,8v25.1c0,3.12,1.18,5.78,3.55,8,2.37,2.22,5.21,3.33,8.54,3.33s6.17-1.11,8.54-3.33,3.55-4.88,3.55-8v-25.1Z"/>
        <path class="cls-2" d="M248.59,169.75c1.58,2.32,2.37,4.86,2.37,7.6,0,3.8-1.44,7.05-4.31,9.74-2.87,2.75-6.34,4.12-10.4,4.12h-14.79v-52.82h14.79c4.06,0,7.52,1.35,10.4,4.04,2.87,2.75,4.31,6.02,4.31,9.82,0,2.75-.79,5.28-2.37,7.6-1.58,2.22-3.66,3.88-6.26,4.99,2.59,1.11,4.68,2.75,6.26,4.91ZM224.16,163.57h12.09c3.32,0,6.17-1.11,8.54-3.33,2.37-2.22,3.55-4.88,3.55-8s-1.18-5.78-3.55-8c-2.37-2.22-5.21-3.33-8.54-3.33h-12.09v22.65ZM236.25,188.67c3.32,0,6.17-1.11,8.54-3.33,2.37-2.22,3.55-4.88,3.55-8s-1.18-5.78-3.55-8c-2.37-2.22-5.21-3.33-8.54-3.33h-12.09v22.65h12.09Z"/>
        <path class="cls-2" d="M281.72,140.92v47.75h13.36v2.53h-29.5v-2.53h13.44v-47.75h-13.44v-2.53h29.5v2.53h-13.36Z"/>
        <path class="cls-2" d="M309.71,191.21v-52.82h2.7v50.29h26.8v2.53h-29.5Z"/>
        <path class="cls-2" d="M356.54,140.92v22.65h26.8v2.53h-26.8v22.57h26.8v2.53h-29.5v-52.82h29.5v2.53h-26.8Z"/>
      </g>
    </g>
  </g>
</svg>