<?xml version="1.0" encoding="UTF-8"?>
<svg id="Camada_2" data-name="Camada 2" xmlns="http://www.w3.org/2000/svg" viewBox="0 0 514.78 311.62">
  <defs>
    <style>
      .cls-1 {
        fill: none;
        stroke-width: 2.93px;
      }

      .cls-1, .cls-2 {
        stroke: #000;
        stroke-miterlimit: 10;
      }

      .cls-2 {
        stroke-width: 2.2px;
      }
    </style>
  </defs>
  <g id="Capa">
    <g>
      <g>
        <g>
          <line class="cls-1" x1="178.66" y1="6.66" x2="178.66" y2="78.81"/>
          <line class="cls-1" x1="178.66" y1="78.81" x2="285.45" y2="79.97"/>
          <polygon class="cls-1" points="284.87 103.06 179.24 101.32 179.24 78.81 284.87 80.54 284.87 103.06"/>
          <line class="cls-1" x1="284.87" y1="103.56" x2="284.87" y2="208.61"/>
          <line class="cls-1" x1="179.24" y1="101.32" x2="178.66" y2="205.22"/>
          <line class="cls-1" x1="189.05" y1="205.01" x2="202.33" y2="120.64"/>
          <line class="cls-1" x1="202.33" y1="120.64" x2="257.74" y2="120.64"/>
          <line class="cls-1" x1="257.74" y1="120.64" x2="271.59" y2="208.11"/>
          <line class="cls-1" x1="176.93" y1="15.61" x2="167.41" y2="15.61"/>
          <line class="cls-1" x1="167.41" y1="15.61" x2="167.41" y2="1.47"/>
          <line class="cls-1" x1="167.41" y1="1.47" x2="190.21" y2="1.47"/>
          <line class="cls-1" x1="190.21" y1="1.47" x2="190.21" y2="78.81"/>
        </g>
        <line class="cls-1" x1="178.66" y1="205.22" x2="189.05" y2="205.01"/>
        <line class="cls-1" x1="271.59" y1="208.11" x2="284.87" y2="208.11"/>
      </g>
      <g>
        <path class="cls-2" d="M14.08,228.91v31.29h34.59v3.5H14.08v31.18h34.59v3.5H10.59v-72.97h38.08v3.5H14.08Z"/>
        <path class="cls-2" d="M73.22,292.69c-3.78-3.72-5.67-8.21-5.67-13.46v-34.68c0-5.25,1.89-9.77,5.67-13.57,3.71-3.72,8.18-5.58,13.42-5.58s9.71,1.86,13.42,5.58c3.71,3.79,5.56,8.31,5.56,13.57h-3.38c0-4.3-1.53-7.99-4.58-11.05-3.05-3.06-6.73-4.59-11.02-4.59s-7.96,1.53-11.02,4.59c-3.06,3.06-4.58,6.75-4.58,11.05v34.68c0,4.3,1.53,7.99,4.58,11.05s6.73,4.59,11.02,4.59,7.96-1.53,11.02-4.59c3.06-3.06,4.58-6.75,4.58-11.05h3.38c0,5.25-1.85,9.74-5.56,13.46-3.71,3.79-8.18,5.69-13.42,5.69s-9.71-1.9-13.42-5.69Z"/>
        <path class="cls-2" d="M157.01,230.99c3.71,3.79,5.56,8.31,5.56,13.57v34.68c0,5.25-1.85,9.74-5.56,13.46-3.71,3.79-8.18,5.69-13.42,5.69s-9.71-1.9-13.42-5.69c-3.78-3.72-5.67-8.21-5.67-13.46v-34.68c0-5.25,1.89-9.77,5.67-13.57,3.71-3.72,8.18-5.58,13.42-5.58s9.71,1.86,13.42,5.58ZM159.19,244.55c0-4.3-1.53-7.99-4.58-11.05-3.05-3.06-6.73-4.59-11.02-4.59s-7.96,1.53-11.02,4.59c-3.06,3.06-4.58,6.75-4.58,11.05v34.68c0,4.3,1.53,7.99,4.58,11.05s6.73,4.59,11.02,4.59,7.96-1.53,11.02-4.59c3.06-3.06,4.58-6.75,4.58-11.05v-34.68Z"/>
        <path class="cls-2" d="M184.94,298.38h-3.49v-72.97h2.84l16.26,32.6,16.26-32.6h2.73v72.97h-3.38v-63.89l-15.6,31.29-15.6-31.29v63.89Z"/>
        <path class="cls-2" d="M270.92,230.99c3.71,3.79,5.56,8.31,5.56,13.57v34.68c0,5.25-1.85,9.74-5.56,13.46-3.71,3.79-8.18,5.69-13.42,5.69s-9.71-1.9-13.42-5.69c-3.78-3.72-5.67-8.21-5.67-13.46v-34.68c0-5.25,1.89-9.77,5.67-13.57,3.71-3.72,8.18-5.58,13.42-5.58s9.71,1.86,13.42,5.58ZM273.1,244.55c0-4.3-1.53-7.99-4.58-11.05-3.05-3.06-6.73-4.59-11.02-4.59s-7.96,1.53-11.02,4.59c-3.06,3.06-4.58,6.75-4.58,11.05v34.68c0,4.3,1.53,7.99,4.58,11.05s6.73,4.59,11.02,4.59,7.96-1.53,11.02-4.59c3.06-3.06,4.58-6.75,4.58-11.05v-34.68Z"/>
        <path class="cls-2" d="M330.38,268.73c2.04,3.21,3.05,6.71,3.05,10.5,0,5.25-1.85,9.74-5.56,13.46-3.71,3.79-8.18,5.69-13.42,5.69h-19.09v-72.97h19.09c5.24,0,9.71,1.86,13.42,5.58,3.71,3.79,5.56,8.31,5.56,13.57,0,3.79-1.02,7.29-3.05,10.5-2.04,3.06-4.73,5.36-8.07,6.89,3.34,1.53,6.04,3.79,8.07,6.78ZM298.85,260.2h15.6c4.29,0,7.96-1.53,11.02-4.59,3.06-3.06,4.58-6.75,4.58-11.05s-1.53-7.99-4.58-11.05c-3.05-3.06-6.73-4.59-11.02-4.59h-15.6v31.29ZM314.45,294.88c4.29,0,7.96-1.53,11.02-4.59,3.06-3.06,4.58-6.75,4.58-11.05s-1.53-7.99-4.58-11.05c-3.05-3.06-6.73-4.59-11.02-4.59h-15.6v31.29h15.6Z"/>
        <path class="cls-2" d="M373.15,228.91v65.97h17.24v3.5h-38.08v-3.5h17.35v-65.97h-17.35v-3.5h38.08v3.5h-17.24Z"/>
        <path class="cls-2" d="M409.26,298.38v-72.97h3.49v69.47h34.59v3.5h-38.08Z"/>
        <path class="cls-2" d="M469.71,228.91v31.29h34.59v3.5h-34.59v31.18h34.59v3.5h-38.08v-72.97h38.08v3.5h-34.59Z"/>
      </g>
    </g>
  </g>
</svg>