<?xml version="1.0" encoding="UTF-8"?>
<svg id="Camada_2" xmlns="http://www.w3.org/2000/svg" version="1.1" viewBox="0 0 784.5 524.3">
  <!-- Generator: Adobe Illustrator 29.2.1, SVG Export Plug-In . SVG Version: 2.1.0 Build 116)  -->
  <defs>
    <style>
      .st0 {
        fill: #cecece;
      }

      .st1 {
        fill: #00d000;
      }

      .st2 {
        fill: #fff4e7;
      }

      .st3 {
        fill: #3c523d;
      }

      .st4 {
        fill: #020102;
      }
    </style>
  </defs>
  <rect class="st2" y="0" width="784.5" height="524.1"/>
  <rect class="st4" x="653.7" y="393.2" width="130.8" height="131"/>
  <path class="st3" d="M653.8,393.1v131c36.1,0,65.4-29.3,65.4-65.5s-29.3-65.5-65.4-65.5h0Z"/>
  <path class="st1" d="M784.5,524.2v-131c-36.1,0-65.4,29.3-65.4,65.5s29.3,65.5,65.4,65.5Z"/>
  <path class="st0" d="M763.6,498c-14-7.5-23.5-22.3-23.5-39.3s9.5-31.8,23.5-39.3v78.6h0Z"/>
  <rect class="st1" y=".1" width="130.8" height="131"/>
  <path class="st0" d="M65.4.1v131c36.1,0,65.4-29.3,65.4-65.5S101.5.1,65.4.1Z"/>
  <path class="st3" d="M0,.1v131c36.1,0,65.4-29.3,65.4-65.5S36.1.1,0,.1Z"/>
  <rect class="st0" x="130.8" y="196.6" width="65.4" height="65.5"/>
  <rect class="st0" x="196.1" y="131.1" width="65.4" height="65.5"/>
  <path class="st3" d="M239.2,196.6c0,23.9-19.3,43.2-43.1,43.2v-43.2h43.1Z"/>
  <path class="st3" d="M196.1,153.4v43.2h-43.1c0-23.9,19.3-43.2,43.1-43.2Z"/>
  <path class="st4" d="M153,196.6h43.1v43.2c-23.8,0-43.1-19.3-43.1-43.2Z"/>
  <path class="st4" d="M239.2,196.6h-43.1v-43.2c23.8,0,43.1,19.3,43.1,43.2Z"/>
  <polygon class="st4" points="305.1 524.2 305.1 458.7 261.5 491.4 305.1 524.2"/>
  <polygon class="st4" points="348.7 524.2 348.7 458.7 305.1 491.4 348.7 524.2"/>
  <polygon class="st1" points="392.2 524.2 392.2 458.7 348.7 491.4 392.2 524.2"/>
  <polygon class="st3" points="348.7 393.1 348.7 458.7 392.2 425.9 348.7 393.1"/>
  <polygon class="st3" points="305.1 393.1 305.1 458.7 348.7 425.9 305.1 393.1"/>
  <polygon class="st1" points="261.5 393.1 261.5 458.7 305.1 425.9 261.5 393.1"/>
  <polygon class="st4" points="0 458.7 65.4 524.2 65.4 458.7 0 458.7"/>
  <polygon class="st3" points="32.7 425.9 98.1 491.4 98.1 425.9 32.7 425.9"/>
  <polygon class="st1" points="65.4 393.1 130.8 458.7 130.8 393.1 65.4 393.1"/>
  <rect class="st1" x="523" y="131.1" width="130.8" height="131"/>
  <polygon class="st4" points="653.8 196.6 588.4 131.1 588.4 196.6 653.8 196.6"/>
  <polygon class="st3" points="621.1 229.4 555.7 163.9 555.7 229.4 621.1 229.4"/>
  <polygon class="st3" points="588.4 262.1 523 196.6 523 262.1 588.4 262.1"/>
  <polygon class="st4" points="130.8 131.1 130.8 262.1 0 262.1 0 196.6 65.4 131.1 130.8 131.1"/>
  <polygon class="st1" points="65.4 196.6 0 262.1 65.4 262.1 65.4 196.6"/>
  <polygon class="st1" points="130.8 196.6 65.4 262.1 130.8 262.1 130.8 196.6"/>
  <polygon class="st3" points="65.4 196.6 130.8 131.1 65.4 131.1 65.4 196.6"/>
  <rect class="st3" y="262.1" width="130.8" height="131"/>
  <polygon class="st4" points="98.1 393.1 0 393.1 0 360.4 32.7 327.6 98.1 393.1"/>
  <polygon class="st1" points="130.8 393.1 0 393.1 65.4 327.6 130.8 393.1"/>
  <polygon class="st0" points="130.8 360.4 130.8 393.1 32.7 393.1 98.1 327.6 130.8 360.4"/>
  <rect class="st1" x="130.8" y="262.1" width="130.8" height="131"/>
  <ellipse class="st3" cx="196.1" cy="327.6" rx="34.5" ry="34.5"/>
  <polygon class="st4" points="130.8 262.1 261.5 262.1 196.1 327.6 130.8 262.1"/>
  <rect class="st3" x="653.7" y="0" width="130.8" height="131"/>
  <path class="st1" d="M784.5,131.1h-130.8c36.1-35,94.6-35,130.8,0h0Z"/>
  <path class="st4" d="M784.5,104.9h-130.8c36.1-35,94.6-35,130.8,0h0Z"/>
  <path class="st1" d="M784.5,78.7h-130.8c36.1-35,94.6-35,130.8,0h0Z"/>
  <path class="st4" d="M784.5,52.5h-130.8c36.1-35,94.6-35,130.8,0h0Z"/>
  <path class="st1" d="M784.5,26.2h-130.8c36.1-35,94.6-35,130.8,0h0Z"/>
  <polygon class="st4" points="392.2 .1 392.2 64.2 325.5 64.2 325.5 131.1 261.5 131.1 261.5 .1 392.2 .1"/>
  <rect class="st0" x="293.2" y="31.9" width="67.2" height="67.4"/>
  <rect class="st3" x="293.2" y="31.9" width="33.6" height="33.7"/>
  <rect class="st3" x="261.5" y="131.1" width="130.8" height="131"/>
  <rect class="st4" x="294.2" y="163.9" width="98.5" height="65.5"/>
  <ellipse class="st1" cx="294.2" cy="196.6" rx="32.7" ry="32.8"/>
  <ellipse class="st0" cx="326.9" cy="196.6" rx="17.3" ry="17.3"/>
  <path class="st0" d="M523,196.9v65.3h-65.4c0-.4,0-.9,0-1.3,0-35.3,28.6-63.9,63.8-63.9s1,0,1.5,0h0Z"/>
  <path class="st1" d="M476.5,131.9v83.6h-83.8c0-.6,0-1.1,0-1.7,0-45.3,36.6-82,81.8-82s1.3,0,2,0h0Z"/>
  <rect class="st4" x="523" y="262.1" width="130.8" height="131"/>
  <path class="st3" d="M522.9,392.9v-130.6h130.8c0,.9,0,1.8,0,2.6,0,70.7-57.2,128-127.8,128s-2.1,0-3.1,0h0Z"/>
  <path class="st4" d="M522.9,362.1v-99.9h100c0,.7,0,1.3,0,2,0,54.1-43.7,97.9-97.7,97.9s-1.6,0-2.4,0h0Z"/>
  <path class="st0" d="M522.9,330.8v-68.5h68.6c0,.5,0,.9,0,1.4,0,37.1-30,67.1-67,67.1s-1.1,0-1.6,0h0Z"/>
  <rect class="st1" x="523" y="393.1" width="130.8" height="131"/>
  <path class="st4" d="M651.7,485.6c-49.8,0-90.1-40.4-90.1-90.3s0-1.5,0-2.2h28.9c0,.5,0,1,0,1.5,0,34.2,27.7,61.9,61.8,61.9s.8,0,1.3,0v29c-.6,0-1.2,0-1.9,0h0Z"/>
  <path class="st3" d="M524.8,431.8c49.8,0,90.1,40.4,90.1,90.3s0,1.5,0,2.2h-28.9c0-.5,0-1,0-1.5,0-34.2-27.7-61.9-61.8-61.9s-.8,0-1.3,0v-29c.6,0,1.2,0,1.9,0h0Z"/>
  <rect class="st1" x="392.2" y="0" width="130.8" height="131"/>
  <ellipse class="st0" cx="431.8" cy="39.8" rx="25.8" ry="25.9"/>
  <ellipse class="st4" cx="483.4" cy="39.8" rx="25.8" ry="25.9"/>
  <ellipse class="st3" cx="431.8" cy="91.5" rx="25.8" ry="25.9"/>
  <ellipse class="st0" cx="483.4" cy="91.5" rx="25.8" ry="25.9"/>
  <rect class="st4" x="523" y=".1" width="32.7" height="32.7"/>
  <rect class="st0" x="555.8" y="32.7" width="32.7" height="32.7"/>
  <rect class="st0" x="555.8" y="98.2" width="32.7" height="32.7"/>
  <rect class="st4" x="588.4" y="65.4" width="32.7" height="32.7"/>
  <rect class="st4" x="523.1" y="65.4" width="32.7" height="32.7"/>
  <rect class="st4" x="588.4" width="32.7" height="32.7"/>
  <rect class="st0" x="621.1" y="98.2" width="32.7" height="32.7"/>
  <rect class="st0" x="621.1" y="32.7" width="32.7" height="32.7"/>
  <rect class="st4" x="392.2" y="393.2" width="130.8" height="131"/>
  <path class="st3" d="M497.7,498.8c-13.2,3.5-27.2,2.9-40-2-8.4-3.2-16.3-8.2-23.1-15-6.8-6.8-11.8-14.7-14.9-23.2-4.8-12.9-5.5-26.9-2-40.1,13.2-3.5,27.2-2.9,40,2,8.4,3.2,16.3,8.2,23.1,15,6.8,6.8,11.8,14.7,14.9,23.2,4.8,12.9,5.5,26.9,2,40.1Z"/>
  <path class="st0" d="M495.7,458.7c-3.2-8.4-8.2-16.4-14.9-23.2-6.8-6.8-14.7-11.8-23.1-15,12.8-4.9,26.9-5.5,40-2,3.5,13.2,2.9,27.3-2,40.1h0Z"/>
  <path class="st0" d="M457.6,496.8c-12.8,4.9-26.9,5.5-40,2-3.5-13.2-2.9-27.3,2-40.1,3.2,8.4,8.2,16.4,14.9,23.2,6.8,6.8,14.7,11.8,23.1,15h0Z"/>
  <path class="st1" d="M495.7,458.7c-3.2,8.4-8.2,16.4-14.9,23.2-6.8,6.8-14.7,11.8-23.1,15-8.4-3.2-16.3-8.2-23.1-15-6.8-6.8-11.8-14.7-14.9-23.2,3.2-8.4,8.2-16.4,14.9-23.2,6.8-6.8,14.7-11.8,23.1-15,8.4,3.2,16.3,8.2,23.1,15,6.8,6.8,11.8,14.7,14.9,23.2Z"/>
  <rect class="st0" x="683.3" y="131.9" width="71.7" height="100.7"/>
  <path class="st1" d="M755,232.6h-71.7v-14.5c0-19.8,16-35.9,35.9-35.9h0c19.8,0,35.9,16.1,35.9,35.9v14.5h0Z"/>
  <rect class="st3" x="130.8" y="0" width="130.8" height="131"/>
  <ellipse class="st4" cx="196.1" cy="65.6" rx="65.4" ry="65.5"/>
  <ellipse class="st1" cx="196.1" cy="65.6" rx="32.7" ry="32.8"/>
  <rect class="st4" x="261.5" y="262.1" width="130.8" height="131"/>
  <path class="st0" d="M392.2,274.5v-12.3c-36,0-65.4,29.4-65.4,65.5s29.3,65.5,65.4,65.5v-12.3c-29.3,0-53.1-23.9-53.1-53.2s23.8-53.2,53.1-53.2h0Z"/>
  <path class="st0" d="M392.2,298.5v-12.3c-22.9,0-41.4,18.6-41.4,41.5s18.6,41.5,41.4,41.5v-12.3c-16.1,0-29.1-13.1-29.1-29.2s13.1-29.2,29.1-29.2h0Z"/>
  <path class="st0" d="M392.2,321.3v-12.3c-10.3,0-18.7,8.4-18.7,18.7s8.4,18.7,18.7,18.7v-12.3c-3.5,0-6.4-2.9-6.4-6.4s2.8-6.4,6.4-6.4h0Z"/>
  <path class="st3" d="M261.5,262.1v131c36.1,0,65.4-29.3,65.4-65.5s-29.3-65.5-65.4-65.5Z"/>
  <rect class="st3" x="130.8" y="393.2" width="130.8" height="131"/>
  <path class="st1" d="M196.1,524.2v-131c-36.1,0-65.4,29.3-65.4,65.5s29.3,65.5,65.4,65.5h0Z"/>
  <polygon class="st4" points="196.1 393.1 261.5 458.7 196.1 524.2 196.1 393.1"/>
  <rect class="st1" x="653.7" y="262.1" width="130.8" height="131"/>
  <path class="st0" d="M704.2,281.8h60.7v60.9c0,17.1-13.9,30.9-30.9,30.9h-29.8c-17.1,0-30.9-13.9-30.9-30.9v-29.9c0-17.1,13.9-30.9,30.9-30.9h0Z"/>
  <ellipse class="st3" cx="719.1" cy="327.6" rx="24.5" ry="24.5"/>
  <rect class="st3" x="392.2" y="262.1" width="130.8" height="131"/>
  <path class="st4" d="M523,327.6h-130.8c0,36.2,29.3,65.5,65.4,65.5s65.4-29.3,65.4-65.5h0Z"/>
  <path class="st1" d="M457.6,262.1v65.5h65.4c0-36.2-29.3-65.5-65.4-65.5Z"/>
  <ellipse class="st0" cx="457.6" cy="327.6" rx="18.7" ry="18.7"/>
</svg>